<svg xmlns="http://www.w3.org/2000/svg" viewBox="-50 -50 100 110">

	<style>
		.sn		{ stroke: none; }
		.s5d	{ stroke: currentColor; stroke-width: 5; }
		.s10d	{ stroke: currentColor; stroke-width: 10; }
		.fn		{ fill: none; }
		.fd		{ fill: currentColor; }

		.s10bg	{ stroke: #FFFFFF; stroke-width: 10; }
		.s20bg	{ stroke: #FFFFFF; stroke-width: 20; }
		.fbg	{ fill: #FFFFFF; }

		.s10t	{ stroke: #0000FF; stroke-width: 10; opacity: 50%; }
		.ft		{ fill: #0000FF; opacity: 50%; }
		.gl		{ stroke: #FF0000; opacity: 50%; stroke-width: 2; }
	</style>

	<g id="bg">
		<circle class="s20bg fbg" cx="0" cy="0" r="22" />
		<path class="s20bg fn" d="M 40 0 A 40 40 0 1 0 0 40" />
		<circle class="s10bg fbg" cx="40" cy="0" r="5" />
		<circle class="s10bg fbg" cx="0" cy="40" r="5" />
		<circle class="s10bg fbg" cx="0" cy="50" r="5" />
		<path class="s20bg" d="M 20 0 h 20" />
		<path class="s20bg" d="M 0 40 v 10" />
	</g>
	<g id="char">
		<circle class="sn fd" cx="0" cy="0" r="5" />
		<circle class="s10d fn" cx="0" cy="0" r="20" />

		<path class="s10d" d="M 20 0 h 20" />
		<path class="s10d" d="M -14 -14 l -14 -14" />
		<path class="s10d fn" d="M 40 0 A 40 40 0 1 0 0 40" />
		<path class="s10d" d="M 0 40 v 10" />
		<circle class="sn fd" cx="40" cy="0" r="5" />
		<circle class="sn fd" cx="0" cy="40" r="5" />
		<circle class="sn fd" cx="0" cy="50" r="5" />
	</g>
</svg>
