<svg xmlns="http://www.w3.org/2000/svg"
 	viewBox="-30 -30 95 110">

	<style>
		.sn		{ stroke: none; }
		.s5d	{ stroke: currentColor; stroke-width: 5; }
		.s10d	{ stroke: currentColor; stroke-width: 10; }
		.fn		{ fill: none; }
		.fd		{ fill: currentColor; }

		.s10bg	{ stroke: #FFFFFF; stroke-width: 10; }
		.s20bg	{ stroke: #FFFFFF; stroke-width: 20; }
		.fbg	{ fill: #FFFFFF; }

		.s10t	{ stroke: #0000FF; stroke-width: 10; opacity: 50%; }
		.ft		{ fill: #0000FF; opacity: 50%; }
		.gl		{ stroke: #FF0000; opacity: 50%; stroke-width: 2; }
	</style>

	<g id="bg">
		<circle class="s20bg fbg" cx="0" cy="0" r="20" />

		<path class="s20bg" d="M 0 20 v 40" />
		<circle class="s10bg fbg" cx="20" cy="40" r="5" />
		<path class="s20bg" d="M 0 40 h 20" />
		<circle class="s10bg fbg" cx="-10" cy="70" r="5" />
		<circle class="s10bg fbg" cx="10" cy="70" r="5" />
		<circle class="s10bg fbg" cx="20" cy="40" r="5" />
		<path class="s20bg fn" d="M 0 60 A 10 10 0 0 1 -10 70" />
		<path class="s20bg fn" d="M 0 60 A 10 10 0 0 0 10 70" />

		<circle class="s10bg fbg" cx="32" cy="23" r="5" />
		<circle class="s10bg fbg" cx="55" cy="0" r="5" />
		<path class="s20bg" d="M 32 23 l -15 -15" />
		<path class="s20bg" d="M 32 23 l 23 -23" />
		<path class="s20bg" d="M 20 0 h 35" />
	</g>

	<g id="char">
		<circle class="sn fd" cx="0" cy="0" r="5" />
		<circle class="s10d fn" cx="0" cy="0" r="20" />

		<path class="s10d" d="M 0 20 v 40" />
		<circle class="sn fd" cx="20" cy="40" r="5" />
		<path class="s10d" d="M 0 40 h 20" />
		<circle class="sn fd" cx="-10" cy="70" r="5" />
		<circle class="sn fd" cx="10" cy="70" r="5" />
		<circle class="sn fd" cx="20" cy="40" r="5" />
		<path class="s10d fn" d="M 0 60 A 10 10 0 0 1 -10 70" />
		<path class="s10d fn" d="M 0 60 A 10 10 0 0 0 10 70" />

		<circle class="sn fd" cx="32" cy="23" r="5" />
		<circle class="sn fd" cx="55" cy="0" r="5" />
		<path class="s10d" d="M 32 23 l -15 -15" />
		<path class="s10d" d="M 32 23 l 23 -23" />
		<path class="s10d" d="M 20 0 h 35" />
	</g>
</svg>
