<svg xmlns="http://www.w3.org/2000/svg"
 	viewBox="-35 -50 70 115">

	<style>
		.sn		{ stroke: none; }
		.s5d	{ stroke: currentColor; stroke-width: 5; }
		.s10d	{ stroke: currentColor; stroke-width: 10; }
		.fn		{ fill: none; }
		.fd		{ fill: currentColor; }

		.s10bg	{ stroke: #FFFFFF; stroke-width: 10; }
		.s20bg	{ stroke: #FFFFFF; stroke-width: 20; }
		.fbg	{ fill: #FFFFFF; }

		.s10t	{ stroke: #0000FF; stroke-width: 10; opacity: 50%; }
		.ft		{ fill: #0000FF; opacity: 50%; }
		.gl		{ stroke: #FF0000; opacity: 50%; stroke-width: 2; }
	</style>

	<g id="bg">

		<circle class="s10bg fbg" cx="0" cy="0" r="5" />
		<circle class="s20bg fbg" cx="0" cy="0" r="20" />

		<circle class="s10bg fbg" cx="-25" cy="-30" r="5" />
		<circle class="s10bg fbg" cx="25" cy="-30" r="5" />
		<path class="s20bg" d="M -16 -18 l -9 -12" />
		<path class="s20bg" d="M 16 -18 l 9 -12" />
		<path class="s20bg fbg" d="M -25 -30 A 40 40 0 0 1 25 -30" />


		<circle class="s10bg fbg" cx="-22" cy="33" r="5" />
		<circle class="s10bg fbg" cx="20" cy="55" r="5" />
		<path class="s20bg" d="M -22 33 L 9 17.8" />
		<path class="s20bg" d="M -22 33 L 20 55" />
		
	</g>

	<g id="char">

		<circle class="sn fd" cx="0" cy="0" r="5" />
		<circle class="s10d fn" cx="0" cy="0" r="20" />

		<circle class="sn fd" cx="-25" cy="-30" r="5" />
		<circle class="sn fd" cx="25" cy="-30" r="5" />
		<path class="s10d" d="M -16 -18 l -9 -12" />
		<path class="s10d" d="M 16 -18 l 9 -12" />
		<path class="s10d fn" d="M -25 -30 A 40 40 0 0 1 25 -30" />


		<circle class="sn fd" cx="-22" cy="33" r="5" />
		<circle class="sn fd" cx="20" cy="55" r="5" />
		<path class="s10d" d="M -22 33 L 9 17.8" />
		<path class="s10d" d="M -22 33 L 20 55" />
		
	</g>
</svg>
