<svg xmlns="http://www.w3.org/2000/svg"
 	viewBox="-45 -45 90 90">

	<style>
		.sn		{ stroke: none; }
		.s5d	{ stroke: currentColor; stroke-width: 5; }
		.s10d	{ stroke: currentColor; stroke-width: 10; }
		.fn		{ fill: none; }
		.fd		{ fill: currentColor; }

		.s10bg	{ stroke: #FFFFFF; stroke-width: 10; }
		.s20bg	{ stroke: #FFFFFF; stroke-width: 20; }
		.fbg	{ fill: #FFFFFF; }

		.s10t	{ stroke: #0000FF; stroke-width: 10; opacity: 50%; }
		.ft		{ fill: #0000FF; opacity: 50%; }
		.gl		{ stroke: #FF0000; opacity: 50%; stroke-width: 2; }
	</style>

	<g id="bg">

		<circle class="fd" cx="0" cy="0" r="5" />
		<circle class="s20bg fbg" cx="0" cy="0" r="20" />

		<circle class="s10bg fbg" cx="-31" cy="-31" r="5" />
		<circle class="s10bg fbg" cx="31" cy="31" r="5" />
		<circle class="s10bg fbg" cx="35" cy="-35" r="5" />
		<circle class="s10bg fbg" cx="-35" cy="35" r="5" />

		<path class="s20bg fbg" d="M -35 35 L -31 -31" />
		<path class="s20bg fbg" d="M -31 -31 l 20 20" />
		<path class="s20bg fbg" d="M 31 31 L 35 -35" />
		<path class="s20bg fbg" d="M 31 31 l -20 -20" />

	</g>

	<g id="char">

		<circle class="fd" cx="0" cy="0" r="5" />
		<circle class="s10d fn" cx="0" cy="0" r="20" />

		<circle class="sn fd" cx="-31" cy="-31" r="5" />
		<circle class="sn fd" cx="31" cy="31" r="5" />
		<circle class="sn fd" cx="35" cy="-35" r="5" />
		<circle class="sn fd" cx="-35" cy="35" r="5" />

		<path class="s10d fn" d="M -35 35 L -31 -31" />
		<path class="s10d fn" d="M -31 -31 l 20 20" />
		<path class="s10d fn" d="M 31 31 L 35 -35" />
		<path class="s10d fn" d="M 31 31 l -20 -20" />

	</g>
</svg>
