<svg xmlns="http://www.w3.org/2000/svg"
 	viewBox="-30 -35 60 100">

	<style>
		.sn		{ stroke: none; }
		.s5d	{ stroke: currentColor; stroke-width: 5; }
		.s10d	{ stroke: currentColor; stroke-width: 10; }
		.fn		{ fill: none; }
		.fd		{ fill: currentColor; }

		.s10bg	{ stroke: #FFFFFF; stroke-width: 10; }
		.s20bg	{ stroke: #FFFFFF; stroke-width: 20; }
		.fbg	{ fill: #FFFFFF; }

		.s10t	{ stroke: #0000FF; stroke-width: 10; opacity: 50%; }
		.ft		{ fill: #0000FF; opacity: 50%; }
		.gl		{ stroke: #FF0000; opacity: 50%; stroke-width: 2; }
	</style>

	<g id="bg">

		<circle class="s10bg fbg" cx="0" cy="0" r="5" />
		<circle class="s20bg fbg" cx="0" cy="0" r="20" />

		<circle class="s10bg fbg" cx="-25" cy="-25" r="5" />
		<circle class="s10bg fbg" cx="25" cy="-25" r="5" />
		<path class="s20bg fbg" d="M -25 -25 l 10 10" />
		<path class="s20bg fbg" d="M 25 -25 l -10 10" />

		<circle class="s10bg fbg" cx="-10" cy="60" r="5" />
		<circle class="s10bg fbg" cx="10" cy="60" r="5" />
		<path class="s20bg fbg" d="M 0 20 v 32" />
		<path class="s20bg fbg" d="M 0 50 A 10 10 0 0 0 10 60" />
		<path class="s20bg fbg" d="M 0 50 A 10 10 0 0 1 -10 60" />
		
	</g>

	<g id="char">

		<circle class="sn fd" cx="0" cy="0" r="5" />
		<circle class="s10d fn" cx="0" cy="0" r="20" />

		<circle class="sn fd" cx="-25" cy="-25" r="5" />
		<circle class="sn fd" cx="25" cy="-25" r="5" />
		<path class="s10d fn" d="M -25 -25 l 10 10" />
		<path class="s10d fn" d="M 25 -25 l -10 10" />

		<circle class="sn fd" cx="-10" cy="60" r="5" />
		<circle class="sn fd" cx="10" cy="60" r="5" />
		<path class="s10d fn" d="M 0 20 v 32" />
		<path class="s10d fn" d="M 0 50 A 10 10 0 0 0 10 60" />
		<path class="s10d fn" d="M 0 50 A 10 10 0 0 1 -10 60" />
		
	</g>
</svg>
