<?xml version="1.0" encoding="UTF-8" standalone="no"?>
<svg
   xmlns:dc="http://purl.org/dc/elements/1.1/"
   xmlns:cc="http://creativecommons.org/ns#"
   xmlns:rdf="http://www.w3.org/1999/02/22-rdf-syntax-ns#"
   xmlns:svg="http://www.w3.org/2000/svg"
   xmlns="http://www.w3.org/2000/svg"
   xmlns:xlink="http://www.w3.org/1999/xlink"
   xmlns:sodipodi="http://sodipodi.sourceforge.net/DTD/sodipodi-0.dtd"
   xmlns:inkscape="http://www.inkscape.org/namespaces/inkscape"
   width="512"
   height="512"
   viewBox="0 0 512 512"
   version="1.1"
   id="svg1"
   xml:space="preserve"
   sodipodi:docname="pokemon.svg"
   inkscape:version="1.0.2 (1.0.2+r75+1)"
   inkscape:export-filename="../8e6fe693/crs.svg"
   inkscape:export-xdpi="96"
   inkscape:export-ydpi="96"><metadata
     id="metadata247"><rdf:RDF><cc:Work
         rdf:about=""><dc:format>image/svg+xml</dc:format><dc:type
           rdf:resource="http://purl.org/dc/dcmitype/StillImage" /></cc:Work></rdf:RDF></metadata><sodipodi:namedview
     id="namedview1"
     pagecolor="#ffffff"
     bordercolor="#000000"
     borderopacity="0.25"
     inkscape:showpageshadow="2"
     inkscape:pageopacity="0.0"
     inkscape:pagecheckerboard="0"
     inkscape:deskcolor="#d1d1d1"
     inkscape:document-units="px"
     inkscape:zoom="1.0730898"
     inkscape:cx="329.7891"
     inkscape:cy="230.3753"
     inkscape:window-width="1920"
     inkscape:window-height="995"
     inkscape:window-x="0"
     inkscape:window-y="28"
     inkscape:window-maximized="1"
     inkscape:current-layer="g28"
     inkscape:export-bgcolor="#ffffff00"
     inkscape:document-rotation="0"
     showgrid="false" /><defs
     id="defs1"><inkscape:path-effect
       effect="powerclip"
       id="path-effect31"
       is_visible="true"
       lpeversion="1"
       inverse="true"
       flatten="false"
       hide_clip="false"
       message="Use fill-rule evenodd on &lt;b&gt;fill and stroke&lt;/b&gt; dialog if no flatten result after convert clip to paths." /><inkscape:path-effect
       effect="powerclip"
       id="path-effect29"
       is_visible="true"
       lpeversion="1"
       inverse="true"
       flatten="false"
       hide_clip="false"
       message="Use fill-rule evenodd on &lt;b&gt;fill and stroke&lt;/b&gt; dialog if no flatten result after convert clip to paths." /><inkscape:path-effect
       effect="powerclip"
       id="path-effect171"
       is_visible="true"
       lpeversion="1"
       inverse="true"
       flatten="false"
       hide_clip="false"
       message="Use fill-rule evenodd on &lt;b&gt;fill and stroke&lt;/b&gt; dialog if no flatten result after convert clip to paths." /><inkscape:path-effect
       effect="powerclip"
       id="path-effect152"
       is_visible="true"
       lpeversion="1"
       inverse="true"
       flatten="false"
       hide_clip="false"
       message="Use fill-rule evenodd on &lt;b&gt;fill and stroke&lt;/b&gt; dialog if no flatten result after convert clip to paths." /><linearGradient
       id="linearGradient146"
       inkscape:collect="always"><stop
         style="stop-color:#6116b5;stop-opacity:1;"
         offset="0"
         id="stop146" /><stop
         style="stop-color:#440f71;stop-opacity:0;"
         offset="1"
         id="stop147" /></linearGradient><inkscape:path-effect
       effect="powerclip"
       id="path-effect145"
       is_visible="true"
       lpeversion="1"
       inverse="true"
       flatten="false"
       hide_clip="false"
       message="Use fill-rule evenodd on &lt;b&gt;fill and stroke&lt;/b&gt; dialog if no flatten result after convert clip to paths." /><inkscape:path-effect
       effect="powerclip"
       id="path-effect102"
       is_visible="true"
       lpeversion="1"
       inverse="true"
       flatten="false"
       hide_clip="false"
       message="Use fill-rule evenodd on &lt;b&gt;fill and stroke&lt;/b&gt; dialog if no flatten result after convert clip to paths." /><inkscape:path-effect
       effect="powerclip"
       id="path-effect10"
       is_visible="true"
       lpeversion="1"
       inverse="true"
       flatten="false"
       hide_clip="false"
       message="Use fill-rule evenodd on &lt;b&gt;fill and stroke&lt;/b&gt; dialog if no flatten result after convert clip to paths." /><inkscape:path-effect
       effect="powerclip"
       id="path-effect4"
       is_visible="true"
       lpeversion="1"
       inverse="true"
       flatten="false"
       hide_clip="false"
       message="Use fill-rule evenodd on &lt;b&gt;fill and stroke&lt;/b&gt; dialog if no flatten result after convert clip to paths." /><clipPath
       clipPathUnits="userSpaceOnUse"
       id="clipPath4"><path
         style="display:none;fill:#d40000"
         d="m 248.19744,202.94824 -0.15501,30.42531 c 0,0 24.72311,-20.34261 19.52461,-31.15747 -3.00348,-6.24837 -19.3696,0.73216 -19.3696,0.73216 z"
         id="path4"
         sodipodi:nodetypes="ccsc" /><path
         id="lpe_path-effect4"
         style="display:inline;fill:#d40000"
         class="powerclip"
         d="M 200.05225,157.14185 H 331.86156 V 326.39579 H 200.05225 Z m 48.14519,45.80639 -0.15501,30.42531 c 0,0 24.72311,-20.34261 19.52461,-31.15747 -3.00348,-6.24837 -19.3696,0.73216 -19.3696,0.73216 z" /></clipPath><clipPath
       clipPathUnits="userSpaceOnUse"
       id="clipPath9"><path
         style="display:none;opacity:0.44;fill:#ff0000"
         d="m 150.03747,278.29925 c -3.22687,-12.93985 -11.44797,-18.08613 -25.08549,-18.20728 -0.11067,18.3363 9.12582,28.16706 25.08549,18.20728 z"
         id="path10"
         sodipodi:nodetypes="ccc" /><path
         id="lpe_path-effect10"
         style="opacity:0.44;fill:#ff0000"
         class="powerclip"
         d="M 50.564485,181.59343 H 221.25208 V 360.10962 H 50.564485 Z m 99.472985,96.70582 c -3.22687,-12.93985 -11.44797,-18.08613 -25.08549,-18.20728 -0.11067,18.3363 9.12582,28.16706 25.08549,18.20728 z" /></clipPath><filter
       id="mask-powermask-path-effect72_inverse"
       inkscape:label="filtermask-powermask-path-effect72"
       style="color-interpolation-filters:sRGB"
       height="100"
       width="100"
       x="-50"
       y="-50"><feColorMatrix
         id="mask-powermask-path-effect72_primitive1"
         values="1"
         type="saturate"
         result="fbSourceGraphic" /><feColorMatrix
         id="mask-powermask-path-effect72_primitive2"
         values="-1 0 0 0 1 0 -1 0 0 1 0 0 -1 0 1 0 0 0 1 0 "
         in="fbSourceGraphic" /></filter><clipPath
       clipPathUnits="userSpaceOnUse"
       id="clipPath73"><g
         inkscape:label="Clip"
         id="use73" /></clipPath><clipPath
       clipPathUnits="userSpaceOnUse"
       id="clipPath80"><g
         inkscape:label="Clip"
         id="use80" /></clipPath><clipPath
       clipPathUnits="userSpaceOnUse"
       id="clipPath82"><g
         inkscape:label="Clip"
         id="use82" /></clipPath><mask
       maskUnits="userSpaceOnUse"
       id="mask82"><path
         style="display:inline;opacity:1;fill:#fbcb05;fill-opacity:1"
         d="m 164.56366,255.06811 39.11718,-26.13416 c 0,0 -19.85153,-37.6744 -66.23927,-37.07517 -47.972546,0.6197 -65.150077,43.55568 -65.286284,74.94665 -0.126904,29.24703 23.017777,68.88994 63.973264,68.48763 50.82534,-0.49925 72.79934,-50.60682 72.79934,-50.60682 l -41.56933,-17.55016 c 0,0 -12.41297,20.0178 -28.07005,19.55246 -13.98689,-0.4157 -18.83662,-12.85139 -19.01833,-23.34953 -0.1934,-11.17285 4.58225,-25.02484 21.34226,-24.68738 13.26629,0.26711 22.95122,16.41648 22.95122,16.41648 z"
         id="path82"
         sodipodi:nodetypes="ccsssccsssc"
         inkscape:label="Yellow" /></mask><mask
       maskUnits="userSpaceOnUse"
       id="mask83"><path
         style="display:inline;opacity:1;fill:#fbcb05;fill-opacity:1"
         d="m 164.56366,255.06811 39.11718,-26.13416 c 0,0 -19.85153,-37.6744 -66.23927,-37.07517 -47.972546,0.6197 -65.150077,43.55568 -65.286284,74.94665 -0.126904,29.24703 23.017777,68.88994 63.973264,68.48763 50.82534,-0.49925 72.79934,-50.60682 72.79934,-50.60682 l -41.56933,-17.55016 c 0,0 -12.41297,20.0178 -28.07005,19.55246 -13.98689,-0.4157 -18.83662,-12.85139 -19.01833,-23.34953 -0.1934,-11.17285 4.58225,-25.02484 21.34226,-24.68738 13.26629,0.26711 22.95122,16.41648 22.95122,16.41648 z"
         id="path83"
         sodipodi:nodetypes="ccsssccsssc"
         inkscape:label="Yellow" /></mask><mask
       maskUnits="userSpaceOnUse"
       id="mask84"><path
         style="display:inline;opacity:1;fill:#fbcb05;fill-opacity:1"
         d="m 164.56366,255.06811 39.11718,-26.13416 c 0,0 -19.85153,-37.6744 -66.23927,-37.07517 -47.972546,0.6197 -65.150077,43.55568 -65.286284,74.94665 -0.126904,29.24703 23.017777,68.88994 63.973264,68.48763 50.82534,-0.49925 72.79934,-50.60682 72.79934,-50.60682 l -41.56933,-17.55016 c 0,0 -12.41297,20.0178 -28.07005,19.55246 -13.98689,-0.4157 -18.83662,-12.85139 -19.01833,-23.34953 -0.1934,-11.17285 4.58225,-25.02484 21.34226,-24.68738 13.26629,0.26711 22.95122,16.41648 22.95122,16.41648 z"
         id="path84"
         sodipodi:nodetypes="ccsssccsssc"
         inkscape:label="Yellow" /></mask><filter
       id="mask-powermask-path-effect91_inverse"
       inkscape:label="filtermask-powermask-path-effect91"
       style="color-interpolation-filters:sRGB"
       height="100"
       width="100"
       x="-50"
       y="-50"><feColorMatrix
         id="mask-powermask-path-effect91_primitive1"
         values="1"
         type="saturate"
         result="fbSourceGraphic" /><feColorMatrix
         id="mask-powermask-path-effect91_primitive2"
         values="-1 0 0 0 1 0 -1 0 0 1 0 0 -1 0 1 0 0 0 1 0 "
         in="fbSourceGraphic" /></filter><filter
       id="mask-powermask-path-effect92_inverse"
       inkscape:label="filtermask-powermask-path-effect92"
       style="color-interpolation-filters:sRGB"
       height="100"
       width="100"
       x="-50"
       y="-50"><feColorMatrix
         id="mask-powermask-path-effect92_primitive1"
         values="1"
         type="saturate"
         result="fbSourceGraphic" /><feColorMatrix
         id="mask-powermask-path-effect92_primitive2"
         values="-1 0 0 0 1 0 -1 0 0 1 0 0 -1 0 1 0 0 0 1 0 "
         in="fbSourceGraphic" /></filter><filter
       id="mask-powermask-path-effect93_inverse"
       inkscape:label="filtermask-powermask-path-effect93"
       style="color-interpolation-filters:sRGB"
       height="100"
       width="100"
       x="-50"
       y="-50"><feColorMatrix
         id="mask-powermask-path-effect93_primitive1"
         values="1"
         type="saturate"
         result="fbSourceGraphic" /><feColorMatrix
         id="mask-powermask-path-effect93_primitive2"
         values="-1 0 0 0 1 0 -1 0 0 1 0 0 -1 0 1 0 0 0 1 0 "
         in="fbSourceGraphic" /></filter><filter
       id="mask-powermask-path-effect105_inverse"
       inkscape:label="filtermask-powermask-path-effect105"
       style="color-interpolation-filters:sRGB"
       height="100"
       width="100"
       x="-50"
       y="-50"><feColorMatrix
         id="mask-powermask-path-effect105_primitive1"
         values="1"
         type="saturate"
         result="fbSourceGraphic" /><feColorMatrix
         id="mask-powermask-path-effect105_primitive2"
         values="-1 0 0 0 1 0 -1 0 0 1 0 0 -1 0 1 0 0 0 1 0 "
         in="fbSourceGraphic" /></filter><filter
       id="mask-powermask-path-effect106_inverse"
       inkscape:label="filtermask-powermask-path-effect106"
       style="color-interpolation-filters:sRGB"
       height="100"
       width="100"
       x="-50"
       y="-50"><feColorMatrix
         id="mask-powermask-path-effect106_primitive1"
         values="1"
         type="saturate"
         result="fbSourceGraphic" /><feColorMatrix
         id="mask-powermask-path-effect106_primitive2"
         values="-1 0 0 0 1 0 -1 0 0 1 0 0 -1 0 1 0 0 0 1 0 "
         in="fbSourceGraphic" /></filter><filter
       id="mask-powermask-path-effect107_inverse"
       inkscape:label="filtermask-powermask-path-effect107"
       style="color-interpolation-filters:sRGB"
       height="100"
       width="100"
       x="-50"
       y="-50"><feColorMatrix
         id="mask-powermask-path-effect107_primitive1"
         values="1"
         type="saturate"
         result="fbSourceGraphic" /><feColorMatrix
         id="mask-powermask-path-effect107_primitive2"
         values="-1 0 0 0 1 0 -1 0 0 1 0 0 -1 0 1 0 0 0 1 0 "
         in="fbSourceGraphic" /></filter><filter
       id="mask-powermask-path-effect109_inverse"
       inkscape:label="filtermask-powermask-path-effect109"
       style="color-interpolation-filters:sRGB"
       height="100"
       width="100"
       x="-50"
       y="-50"><feColorMatrix
         id="mask-powermask-path-effect109_primitive1"
         values="1"
         type="saturate"
         result="fbSourceGraphic" /><feColorMatrix
         id="mask-powermask-path-effect109_primitive2"
         values="-1 0 0 0 1 0 -1 0 0 1 0 0 -1 0 1 0 0 0 1 0 "
         in="fbSourceGraphic" /></filter><filter
       id="mask-powermask-path-effect110_inverse"
       inkscape:label="filtermask-powermask-path-effect110"
       style="color-interpolation-filters:sRGB"
       height="100"
       width="100"
       x="-50"
       y="-50"><feColorMatrix
         id="mask-powermask-path-effect110_primitive1"
         values="1"
         type="saturate"
         result="fbSourceGraphic" /><feColorMatrix
         id="mask-powermask-path-effect110_primitive2"
         values="-1 0 0 0 1 0 -1 0 0 1 0 0 -1 0 1 0 0 0 1 0 "
         in="fbSourceGraphic" /></filter><filter
       id="mask-powermask-path-effect111_inverse"
       inkscape:label="filtermask-powermask-path-effect111"
       style="color-interpolation-filters:sRGB"
       height="100"
       width="100"
       x="-50"
       y="-50"><feColorMatrix
         id="mask-powermask-path-effect111_primitive1"
         values="1"
         type="saturate"
         result="fbSourceGraphic" /><feColorMatrix
         id="mask-powermask-path-effect111_primitive2"
         values="-1 0 0 0 1 0 -1 0 0 1 0 0 -1 0 1 0 0 0 1 0 "
         in="fbSourceGraphic" /></filter><filter
       id="mask-powermask-path-effect117_inverse"
       inkscape:label="filtermask-powermask-path-effect117"
       style="color-interpolation-filters:sRGB"
       height="100"
       width="100"
       x="-50"
       y="-50"><feColorMatrix
         id="mask-powermask-path-effect117_primitive1"
         values="1"
         type="saturate"
         result="fbSourceGraphic" /><feColorMatrix
         id="mask-powermask-path-effect117_primitive2"
         values="-1 0 0 0 1 0 -1 0 0 1 0 0 -1 0 1 0 0 0 1 0 "
         in="fbSourceGraphic" /></filter><filter
       id="mask-powermask-path-effect118_inverse"
       inkscape:label="filtermask-powermask-path-effect118"
       style="color-interpolation-filters:sRGB"
       height="100"
       width="100"
       x="-50"
       y="-50"><feColorMatrix
         id="mask-powermask-path-effect118_primitive1"
         values="1"
         type="saturate"
         result="fbSourceGraphic" /><feColorMatrix
         id="mask-powermask-path-effect118_primitive2"
         values="-1 0 0 0 1 0 -1 0 0 1 0 0 -1 0 1 0 0 0 1 0 "
         in="fbSourceGraphic" /></filter><filter
       id="mask-powermask-path-effect119_inverse"
       inkscape:label="filtermask-powermask-path-effect119"
       style="color-interpolation-filters:sRGB"
       height="100"
       width="100"
       x="-50"
       y="-50"><feColorMatrix
         id="mask-powermask-path-effect119_primitive1"
         values="1"
         type="saturate"
         result="fbSourceGraphic" /><feColorMatrix
         id="mask-powermask-path-effect119_primitive2"
         values="-1 0 0 0 1 0 -1 0 0 1 0 0 -1 0 1 0 0 0 1 0 "
         in="fbSourceGraphic" /></filter><filter
       id="mask-powermask-path-effect122_inverse"
       inkscape:label="filtermask-powermask-path-effect122"
       style="color-interpolation-filters:sRGB"
       height="100"
       width="100"
       x="-50"
       y="-50"><feColorMatrix
         id="mask-powermask-path-effect122_primitive1"
         values="1"
         type="saturate"
         result="fbSourceGraphic" /><feColorMatrix
         id="mask-powermask-path-effect122_primitive2"
         values="-1 0 0 0 1 0 -1 0 0 1 0 0 -1 0 1 0 0 0 1 0 "
         in="fbSourceGraphic" /></filter><filter
       id="mask-powermask-path-effect123_inverse"
       inkscape:label="filtermask-powermask-path-effect123"
       style="color-interpolation-filters:sRGB"
       height="100"
       width="100"
       x="-50"
       y="-50"><feColorMatrix
         id="mask-powermask-path-effect123_primitive1"
         values="1"
         type="saturate"
         result="fbSourceGraphic" /><feColorMatrix
         id="mask-powermask-path-effect123_primitive2"
         values="-1 0 0 0 1 0 -1 0 0 1 0 0 -1 0 1 0 0 0 1 0 "
         in="fbSourceGraphic" /></filter><filter
       id="mask-powermask-path-effect124_inverse"
       inkscape:label="filtermask-powermask-path-effect124"
       style="color-interpolation-filters:sRGB"
       height="100"
       width="100"
       x="-50"
       y="-50"><feColorMatrix
         id="mask-powermask-path-effect124_primitive1"
         values="1"
         type="saturate"
         result="fbSourceGraphic" /><feColorMatrix
         id="mask-powermask-path-effect124_primitive2"
         values="-1 0 0 0 1 0 -1 0 0 1 0 0 -1 0 1 0 0 0 1 0 "
         in="fbSourceGraphic" /></filter><filter
       id="mask-powermask-path-effect126_inverse"
       inkscape:label="filtermask-powermask-path-effect126"
       style="color-interpolation-filters:sRGB"
       height="100"
       width="100"
       x="-50"
       y="-50"><feColorMatrix
         id="mask-powermask-path-effect126_primitive1"
         values="1"
         type="saturate"
         result="fbSourceGraphic" /><feColorMatrix
         id="mask-powermask-path-effect126_primitive2"
         values="-1 0 0 0 1 0 -1 0 0 1 0 0 -1 0 1 0 0 0 1 0 "
         in="fbSourceGraphic" /></filter><filter
       id="mask-powermask-path-effect127_inverse"
       inkscape:label="filtermask-powermask-path-effect127"
       style="color-interpolation-filters:sRGB"
       height="100"
       width="100"
       x="-50"
       y="-50"><feColorMatrix
         id="mask-powermask-path-effect127_primitive1"
         values="1"
         type="saturate"
         result="fbSourceGraphic" /><feColorMatrix
         id="mask-powermask-path-effect127_primitive2"
         values="-1 0 0 0 1 0 -1 0 0 1 0 0 -1 0 1 0 0 0 1 0 "
         in="fbSourceGraphic" /></filter><filter
       id="mask-powermask-path-effect128_inverse"
       inkscape:label="filtermask-powermask-path-effect128"
       style="color-interpolation-filters:sRGB"
       height="100"
       width="100"
       x="-50"
       y="-50"><feColorMatrix
         id="mask-powermask-path-effect128_primitive1"
         values="1"
         type="saturate"
         result="fbSourceGraphic" /><feColorMatrix
         id="mask-powermask-path-effect128_primitive2"
         values="-1 0 0 0 1 0 -1 0 0 1 0 0 -1 0 1 0 0 0 1 0 "
         in="fbSourceGraphic" /></filter><filter
       id="mask-powermask-path-effect133_inverse"
       inkscape:label="filtermask-powermask-path-effect133"
       style="color-interpolation-filters:sRGB"
       height="100"
       width="100"
       x="-50"
       y="-50"><feColorMatrix
         id="mask-powermask-path-effect133_primitive1"
         values="1"
         type="saturate"
         result="fbSourceGraphic" /><feColorMatrix
         id="mask-powermask-path-effect133_primitive2"
         values="-1 0 0 0 1 0 -1 0 0 1 0 0 -1 0 1 0 0 0 1 0 "
         in="fbSourceGraphic" /></filter><filter
       id="mask-powermask-path-effect134_inverse"
       inkscape:label="filtermask-powermask-path-effect134"
       style="color-interpolation-filters:sRGB"
       height="100"
       width="100"
       x="-50"
       y="-50"><feColorMatrix
         id="mask-powermask-path-effect134_primitive1"
         values="1"
         type="saturate"
         result="fbSourceGraphic" /><feColorMatrix
         id="mask-powermask-path-effect134_primitive2"
         values="-1 0 0 0 1 0 -1 0 0 1 0 0 -1 0 1 0 0 0 1 0 "
         in="fbSourceGraphic" /></filter><filter
       id="mask-powermask-path-effect135_inverse"
       inkscape:label="filtermask-powermask-path-effect135"
       style="color-interpolation-filters:sRGB"
       height="100"
       width="100"
       x="-50"
       y="-50"><feColorMatrix
         id="mask-powermask-path-effect135_primitive1"
         values="1"
         type="saturate"
         result="fbSourceGraphic" /><feColorMatrix
         id="mask-powermask-path-effect135_primitive2"
         values="-1 0 0 0 1 0 -1 0 0 1 0 0 -1 0 1 0 0 0 1 0 "
         in="fbSourceGraphic" /></filter><mask
       maskUnits="userSpaceOnUse"
       id="mask142"><path
         style="display:inline;opacity:1;mix-blend-mode:normal;fill:#2d6baa;fill-opacity:1"
         d="m 209.71466,228.90352 c 0,0 -16.48672,-43.99687 -76.33589,-42.25999 -16.22801,0.47095 -22.09897,3.98332 -32.04237,9.43186 -16.586083,9.08842 -46.58574,39.31297 -45.755017,89.42809 0.737655,44.50061 30.311462,69.42754 72.628537,69.60553 58.37762,0.24554 88.04216,-74.17916 88.04216,-74.17916 L 168.93413,263.2519 191.7076,248.78817 Z"
         id="path142"
         sodipodi:nodetypes="csssscccc"
         clip-path="none"
         inkscape:label="Blue" /></mask><mask
       maskUnits="userSpaceOnUse"
       id="mask143"><path
         style="display:inline;opacity:1;mix-blend-mode:normal;fill:#2d6baa;fill-opacity:1"
         d="m 209.71466,228.90352 c 0,0 -16.48672,-43.99687 -76.33589,-42.25999 -16.22801,0.47095 -22.09897,3.98332 -32.04237,9.43186 -16.586083,9.08842 -46.58574,39.31297 -45.755017,89.42809 0.737655,44.50061 30.311462,69.42754 72.628537,69.60553 58.37762,0.24554 88.04216,-74.17916 88.04216,-74.17916 L 168.93413,263.2519 191.7076,248.78817 Z"
         id="path143"
         sodipodi:nodetypes="csssscccc"
         clip-path="none"
         inkscape:label="Blue" /></mask><mask
       maskUnits="userSpaceOnUse"
       id="mask144"><path
         style="display:inline;opacity:1;mix-blend-mode:normal;fill:#2d6baa;fill-opacity:1"
         d="m 209.71466,228.90352 c 0,0 -16.48672,-43.99687 -76.33589,-42.25999 -16.22801,0.47095 -22.09897,3.98332 -32.04237,9.43186 -16.586083,9.08842 -46.58574,39.31297 -45.755017,89.42809 0.737655,44.50061 30.311462,69.42754 72.628537,69.60553 58.37762,0.24554 88.04216,-74.17916 88.04216,-74.17916 L 168.93413,263.2519 191.7076,248.78817 Z"
         id="path144"
         sodipodi:nodetypes="csssscccc"
         clip-path="none"
         inkscape:label="Blue" /></mask><clipPath
       clipPathUnits="userSpaceOnUse"
       id="clipPath145"><path
         style="display:none;opacity:0.44;mix-blend-mode:normal;fill:#ff0000"
         d="m 150.03747,278.29925 c -3.22687,-12.93985 -11.44797,-18.08613 -25.08549,-18.20728 -0.11067,18.3363 9.12582,28.16706 25.08549,18.20728 z"
         id="path145"
         sodipodi:nodetypes="ccc" /><path
         id="lpe_path-effect145"
         style="display:inline;opacity:0.44;mix-blend-mode:normal;fill:#ff0000"
         class="powerclip"
         d="m 119.92764,238.09764 h 48.43635 v 47.63415 h -48.43635 z m 30.10983,40.20161 c -3.22687,-12.93985 -11.44797,-18.08613 -25.08549,-18.20728 -0.11067,18.3363 9.12582,28.16706 25.08549,18.20728 z" /></clipPath><mask
       maskUnits="userSpaceOnUse"
       id="mask167"><path
         style="fill:#fbcb05;fill-opacity:1"
         d="m 205.05225,175.36727 0.37077,41.70245 14.26216,1.34896 12.82491,102.97711 27.67212,-7.23735 -6.29998,-56.36647 39.19576,61.46274 33.78357,-13.5137 -50.27841,-62.2967 c 0,0 50.27572,-41.21147 30.89159,-67.31365 -23.03857,-31.02317 -102.42249,-0.76339 -102.42249,-0.76339 z"
         id="path167"
         sodipodi:nodetypes="cccccccccsc"
         inkscape:label="Yellow"
         clip-path="none" /></mask><mask
       maskUnits="userSpaceOnUse"
       id="mask168"><path
         style="fill:#fbcb05;fill-opacity:1"
         d="m 205.05225,175.36727 0.37077,41.70245 14.26216,1.34896 12.82491,102.97711 27.67212,-7.23735 -6.29998,-56.36647 39.19576,61.46274 33.78357,-13.5137 -50.27841,-62.2967 c 0,0 50.27572,-41.21147 30.89159,-67.31365 -23.03857,-31.02317 -102.42249,-0.76339 -102.42249,-0.76339 z"
         id="path168"
         sodipodi:nodetypes="cccccccccsc"
         inkscape:label="Yellow"
         clip-path="none" /></mask><mask
       maskUnits="userSpaceOnUse"
       id="mask169"><path
         style="fill:#fbcb05;fill-opacity:1"
         d="m 205.05225,175.36727 0.37077,41.70245 14.26216,1.34896 12.82491,102.97711 27.67212,-7.23735 -6.29998,-56.36647 39.19576,61.46274 33.78357,-13.5137 -50.27841,-62.2967 c 0,0 50.27572,-41.21147 30.89159,-67.31365 -23.03857,-31.02317 -102.42249,-0.76339 -102.42249,-0.76339 z"
         id="path169"
         sodipodi:nodetypes="cccccccccsc"
         inkscape:label="Yellow"
         clip-path="none" /></mask><mask
       maskUnits="userSpaceOnUse"
       id="mask170"><path
         style="fill:#fbcb05;fill-opacity:1"
         d="m 205.05225,175.36727 0.37077,41.70245 14.26216,1.34896 12.82491,102.97711 27.67212,-7.23735 -6.29998,-56.36647 39.19576,61.46274 33.78357,-13.5137 -50.27841,-62.2967 c 0,0 50.27572,-41.21147 30.89159,-67.31365 -23.03857,-31.02317 -102.42249,-0.76339 -102.42249,-0.76339 z"
         id="path170"
         sodipodi:nodetypes="cccccccccsc"
         inkscape:label="Yellow"
         clip-path="none" /></mask><clipPath
       clipPathUnits="userSpaceOnUse"
       id="clipPath170"><path
         style="display:none;fill:#d40000"
         d="m 248.19744,202.94824 -0.15501,30.42531 c 0,0 24.72311,-20.34261 19.52461,-31.15747 -3.00348,-6.24837 -19.3696,0.73216 -19.3696,0.73216 z"
         id="path171"
         sodipodi:nodetypes="ccsc" /><path
         id="lpe_path-effect171"
         style="display:block;fill:#d40000"
         class="powerclip"
         d="m 240.0067,197.6425 h 32.74744 v 45.88843 H 240.0067 Z m 8.19074,5.30574 -0.15501,30.42531 c 0,0 24.72311,-20.34261 19.52461,-31.15747 -3.00348,-6.24837 -19.3696,0.73216 -19.3696,0.73216 z" /></clipPath><mask
       maskUnits="userSpaceOnUse"
       id="mask3"><path
         style="display:inline;opacity:1;fill:#2d6baa;fill-opacity:1"
         d="m 182.97714,185.70388 17.95393,-14.28219 c 0,0 91.47468,-36.62067 114.22803,5.556 14.85231,27.53093 -30.06877,66.92138 -30.06877,66.92138 l 50.4673,62.01284 -20.18735,17.84544 -37.845,14.8874 -11.64861,-21.89938 -12.58049,13.04644 -40.69081,8.9238 -12.76769,-108.57944 -15.8421,-2.09675 z"
         id="path9"
         sodipodi:nodetypes="ccscccccccccc"
         inkscape:label="Blue" /></mask><mask
       maskUnits="userSpaceOnUse"
       id="mask9"><path
         style="display:inline;opacity:1;fill:#2d6baa;fill-opacity:1"
         d="m 182.97714,185.70388 17.95393,-14.28219 c 0,0 91.47468,-36.62067 114.22803,5.556 14.85231,27.53093 -30.06877,66.92138 -30.06877,66.92138 l 50.4673,62.01284 -20.18735,17.84544 -37.845,14.8874 -11.64861,-21.89938 -12.58049,13.04644 -40.69081,8.9238 -12.76769,-108.57944 -15.8421,-2.09675 z"
         id="path11"
         sodipodi:nodetypes="ccscccccccccc"
         inkscape:label="Blue" /></mask><mask
       maskUnits="userSpaceOnUse"
       id="mask11"><path
         style="display:inline;opacity:1;fill:#2d6baa;fill-opacity:1"
         d="m 182.97714,185.70388 17.95393,-14.28219 c 0,0 91.47468,-36.62067 114.22803,5.556 14.85231,27.53093 -30.06877,66.92138 -30.06877,66.92138 l 50.4673,62.01284 -20.18735,17.84544 -37.845,14.8874 -11.64861,-21.89938 -12.58049,13.04644 -40.69081,8.9238 -12.76769,-108.57944 -15.8421,-2.09675 z"
         id="path16"
         sodipodi:nodetypes="ccscccccccccc"
         inkscape:label="Blue" /></mask><mask
       maskUnits="userSpaceOnUse"
       id="mask16"><path
         style="display:inline;opacity:1;fill:#2d6baa;fill-opacity:1"
         d="m 182.97714,185.70388 17.95393,-14.28219 c 0,0 91.47468,-36.62067 114.22803,5.556 14.85231,27.53093 -30.06877,66.92138 -30.06877,66.92138 l 50.4673,62.01284 -20.18735,17.84544 -37.845,14.8874 -11.64861,-21.89938 -12.58049,13.04644 -40.69081,8.9238 -12.76769,-108.57944 -15.8421,-2.09675 z"
         id="path17"
         sodipodi:nodetypes="ccscccccccccc"
         inkscape:label="Blue" /></mask><mask
       maskUnits="userSpaceOnUse"
       id="mask17"><path
         style="display:inline;opacity:1;fill:#2d6baa;fill-opacity:1"
         d="m 182.97714,185.70388 17.95393,-14.28219 c 0,0 91.47468,-36.62067 114.22803,5.556 14.85231,27.53093 -30.06877,66.92138 -30.06877,66.92138 l 50.4673,62.01284 -20.18735,17.84544 -37.845,14.8874 -11.64861,-21.89938 -12.58049,13.04644 -40.69081,8.9238 -12.76769,-108.57944 -15.8421,-2.09675 z"
         id="path18"
         sodipodi:nodetypes="ccscccccccccc"
         inkscape:label="Blue" /></mask><mask
       maskUnits="userSpaceOnUse"
       id="mask18"><path
         style="display:inline;opacity:1;fill:#2d6baa;fill-opacity:1"
         d="m 182.97714,185.70388 17.95393,-14.28219 c 0,0 91.47468,-36.62067 114.22803,5.556 14.85231,27.53093 -30.06877,66.92138 -30.06877,66.92138 l 50.4673,62.01284 -20.18735,17.84544 -37.845,14.8874 -11.64861,-21.89938 -12.58049,13.04644 -40.69081,8.9238 -12.76769,-108.57944 -15.8421,-2.09675 z"
         id="path19"
         sodipodi:nodetypes="ccscccccccccc"
         inkscape:label="Blue" /></mask><mask
       maskUnits="userSpaceOnUse"
       id="mask19"><path
         style="display:inline;opacity:1;fill:#2d6baa;fill-opacity:1"
         d="m 182.97714,185.70388 17.95393,-14.28219 c 0,0 91.47468,-36.62067 114.22803,5.556 14.85231,27.53093 -30.06877,66.92138 -30.06877,66.92138 l 50.4673,62.01284 -20.18735,17.84544 -37.845,14.8874 -11.64861,-21.89938 -12.58049,13.04644 -40.69081,8.9238 -12.76769,-108.57944 -15.8421,-2.09675 z"
         id="path20"
         sodipodi:nodetypes="ccscccccccccc"
         inkscape:label="Blue" /></mask><mask
       maskUnits="userSpaceOnUse"
       id="mask28"><path
         style="display:inline;opacity:1;fill:#2d6baa;fill-opacity:1"
         d="m 433.05953,253.77438 10.67716,-10.75464 14.30902,-53.36481 c 0,0 -41.59607,-20.21395 -87.6237,-13.8206 -18.55898,2.57789 -48.69526,19.90192 -49.5086,50.58484 -0.57647,21.74689 25.17334,40.42739 25.17334,40.42739 l -9.51673,-2.97652 -14.84,9.41164 -6.33564,55.0947 c 0,0 46.03273,7.64437 68.79471,6.38682 12.49989,-0.69059 25.31131,-2.62888 35.67982,-9.64443 12.10393,-8.18976 24.30019,-24.61589 25.26132,-39.19854 1.37452,-20.85464 -12.0707,-32.14585 -12.0707,-32.14585 z"
         id="path28"
         inkscape:label="Blue"
         sodipodi:nodetypes="cccssccccsssc" /></mask><mask
       maskUnits="userSpaceOnUse"
       id="mask29"><path
         style="display:inline;opacity:1;fill:#2d6baa;fill-opacity:1"
         d="m 433.05953,253.77438 10.67716,-10.75464 14.30902,-53.36481 c 0,0 -41.59607,-20.21395 -87.6237,-13.8206 -18.55898,2.57789 -48.69526,19.90192 -49.5086,50.58484 -0.57647,21.74689 25.17334,40.42739 25.17334,40.42739 l -9.51673,-2.97652 -14.84,9.41164 -6.33564,55.0947 c 0,0 46.03273,7.64437 68.79471,6.38682 12.49989,-0.69059 25.31131,-2.62888 35.67982,-9.64443 12.10393,-8.18976 24.30019,-24.61589 25.26132,-39.19854 1.37452,-20.85464 -12.0707,-32.14585 -12.0707,-32.14585 z"
         id="path29"
         inkscape:label="Blue"
         sodipodi:nodetypes="cccssccccsssc" /></mask><mask
       maskUnits="userSpaceOnUse"
       id="mask30"><path
         style="display:inline;opacity:1;fill:#2d6baa;fill-opacity:1"
         d="m 433.05953,253.77438 10.67716,-10.75464 14.30902,-53.36481 c 0,0 -41.59607,-20.21395 -87.6237,-13.8206 -18.55898,2.57789 -48.69526,19.90192 -49.5086,50.58484 -0.57647,21.74689 25.17334,40.42739 25.17334,40.42739 l -9.51673,-2.97652 -14.84,9.41164 -6.33564,55.0947 c 0,0 46.03273,7.64437 68.79471,6.38682 12.49989,-0.69059 25.31131,-2.62888 35.67982,-9.64443 12.10393,-8.18976 24.30019,-24.61589 25.26132,-39.19854 1.37452,-20.85464 -12.0707,-32.14585 -12.0707,-32.14585 z"
         id="path30"
         inkscape:label="Blue"
         sodipodi:nodetypes="cccssccccsssc" /></mask><mask
       maskUnits="userSpaceOnUse"
       id="mask31"><path
         style="display:inline;opacity:1;fill:#2d6baa;fill-opacity:1"
         d="m 433.05953,253.77438 10.67716,-10.75464 14.30902,-53.36481 c 0,0 -41.59607,-20.21395 -87.6237,-13.8206 -18.55898,2.57789 -48.69526,19.90192 -49.5086,50.58484 -0.57647,21.74689 25.17334,40.42739 25.17334,40.42739 l -9.51673,-2.97652 -14.84,9.41164 -6.33564,55.0947 c 0,0 46.03273,7.64437 68.79471,6.38682 12.49989,-0.69059 25.31131,-2.62888 35.67982,-9.64443 12.10393,-8.18976 24.30019,-24.61589 25.26132,-39.19854 1.37452,-20.85464 -12.0707,-32.14585 -12.0707,-32.14585 z"
         id="path31"
         inkscape:label="Blue"
         sodipodi:nodetypes="cccssccccsssc" /></mask><mask
       maskUnits="userSpaceOnUse"
       id="mask35"><path
         style="display:inline;fill:#fbcb05;fill-opacity:1"
         d="m 451.33428,193.51625 -11.45951,39.4435 c 0,0 -22.61469,-10.2642 -34.42263,-15.33857 -9.94894,-4.27548 -26.69793,-7.59655 -30.0837,-0.20177 -3.44004,7.51331 10.00573,14.36113 33.34269,25.84048 26.3676,12.97011 35.08458,31.3912 30.68823,48.55751 -4.96958,19.40457 -27.66655,26.49261 -48.47949,26.66212 -18.88141,0.15377 -58.9575,-5.32989 -58.9575,-5.32989 l 7.54004,-42.46384 c 0,0 31.02527,11.41133 41.86476,13.75792 9.40421,2.03587 26.98972,7.58544 28.80594,-1.86365 1.29653,-6.74536 -26.69848,-21.18965 -36.29416,-26.5208 -14.83772,-8.2435 -38.42108,-20.45887 -36.9116,-40.68386 2.02384,-27.11682 30.55295,-35.87619 56.95037,-35.36598 24.22506,0.46823 57.41656,13.50683 57.41656,13.50683 z"
         id="path36"
         sodipodi:nodetypes="ccsssssccsssssc"
         inkscape:label="Yellow" /></mask><mask
       maskUnits="userSpaceOnUse"
       id="mask36"><path
         style="display:inline;fill:#fbcb05;fill-opacity:1"
         d="m 451.33428,193.51625 -11.45951,39.4435 c 0,0 -22.61469,-10.2642 -34.42263,-15.33857 -9.94894,-4.27548 -26.69793,-7.59655 -30.0837,-0.20177 -3.44004,7.51331 10.00573,14.36113 33.34269,25.84048 26.3676,12.97011 35.08458,31.3912 30.68823,48.55751 -4.96958,19.40457 -27.66655,26.49261 -48.47949,26.66212 -18.88141,0.15377 -58.9575,-5.32989 -58.9575,-5.32989 l 7.54004,-42.46384 c 0,0 31.02527,11.41133 41.86476,13.75792 9.40421,2.03587 26.98972,7.58544 28.80594,-1.86365 1.29653,-6.74536 -26.69848,-21.18965 -36.29416,-26.5208 -14.83772,-8.2435 -38.42108,-20.45887 -36.9116,-40.68386 2.02384,-27.11682 30.55295,-35.87619 56.95037,-35.36598 24.22506,0.46823 57.41656,13.50683 57.41656,13.50683 z"
         id="path37"
         sodipodi:nodetypes="ccsssssccsssssc"
         inkscape:label="Yellow" /></mask><mask
       maskUnits="userSpaceOnUse"
       id="mask37"><path
         style="display:inline;fill:#fbcb05;fill-opacity:1"
         d="m 451.33428,193.51625 -11.45951,39.4435 c 0,0 -22.61469,-10.2642 -34.42263,-15.33857 -9.94894,-4.27548 -26.69793,-7.59655 -30.0837,-0.20177 -3.44004,7.51331 10.00573,14.36113 33.34269,25.84048 26.3676,12.97011 35.08458,31.3912 30.68823,48.55751 -4.96958,19.40457 -27.66655,26.49261 -48.47949,26.66212 -18.88141,0.15377 -58.9575,-5.32989 -58.9575,-5.32989 l 7.54004,-42.46384 c 0,0 31.02527,11.41133 41.86476,13.75792 9.40421,2.03587 26.98972,7.58544 28.80594,-1.86365 1.29653,-6.74536 -26.69848,-21.18965 -36.29416,-26.5208 -14.83772,-8.2435 -38.42108,-20.45887 -36.9116,-40.68386 2.02384,-27.11682 30.55295,-35.87619 56.95037,-35.36598 24.22506,0.46823 57.41656,13.50683 57.41656,13.50683 z"
         id="path38"
         sodipodi:nodetypes="ccsssssccsssssc"
         inkscape:label="Yellow" /></mask><clipPath
       clipPathUnits="userSpaceOnUse"
       id="clipath_lpe_path-effect29"><path
         style="display:none;opacity:0.44;fill:#ff0000"
         d="m 150.03747,278.29925 c -3.22687,-12.93985 -11.44797,-18.08613 -25.08549,-18.20728 -0.11067,18.3363 9.12582,28.16706 25.08549,18.20728 z"
         id="path35"
         sodipodi:nodetypes="ccc" /><path
         id="lpe_path-effect29"
         style="opacity:0.44;fill:#ff0000"
         class="powerclip"
         d="M 50.564485,181.59343 H 221.25208 V 360.10962 H 50.564485 Z m 99.472985,96.70582 c -3.22687,-12.93985 -11.44797,-18.08613 -25.08549,-18.20728 -0.11067,18.3363 9.12582,28.16706 25.08549,18.20728 z" /></clipPath><clipPath
       clipPathUnits="userSpaceOnUse"
       id="clipath_lpe_path-effect31"><path
         style="display:none;opacity:0.44;mix-blend-mode:normal;fill:#ff0000"
         d="m 150.03747,278.29925 c -3.22687,-12.93985 -11.44797,-18.08613 -25.08549,-18.20728 -0.11067,18.3363 9.12582,28.16706 25.08549,18.20728 z"
         id="path39"
         sodipodi:nodetypes="ccc" /><path
         id="lpe_path-effect31"
         style="display:inline;opacity:0.44;mix-blend-mode:normal;fill:#ff0000"
         class="powerclip"
         d="m 119.92764,238.09764 h 48.43635 v 47.63415 h -48.43635 z m 30.10983,40.20161 c -3.22687,-12.93985 -11.44797,-18.08613 -25.08549,-18.20728 -0.11067,18.3363 9.12582,28.16706 25.08549,18.20728 z" /></clipPath><radialGradient
       inkscape:collect="always"
       xlink:href="#linearGradient146"
       id="radialGradient40"
       gradientUnits="userSpaceOnUse"
       gradientTransform="matrix(-1.3152798,-0.91674992,0.59542081,-0.85426233,147.26671,702.00806)"
       cx="129.50722"
       cy="307.2804"
       fx="129.50722"
       fy="307.2804"
       r="76.3685" /><linearGradient
       inkscape:collect="always"
       xlink:href="#linearGradient146"
       id="linearGradient40"
       gradientUnits="userSpaceOnUse"
       x1="162.55785"
       y1="263.82397"
       x2="221.44989"
       y2="234.17146" /><linearGradient
       inkscape:collect="always"
       xlink:href="#linearGradient146"
       id="linearGradient42"
       gradientUnits="userSpaceOnUse"
       x1="161.1696"
       y1="252.36003"
       x2="138.32408"
       y2="277.07047" /></defs><g
     inkscape:groupmode="layer"
     id="g28"
     inkscape:label="C copy"
     inkscape:highlight-color="#6335f3"
     style="display:inline;opacity:1"
     transform="matrix(2.5031867,0,0,2.5031867,-24.668418,-415.49881)"><path
       style="display:inline;opacity:1;fill:#2d6baa;fill-opacity:1"
       d="m 209.71466,228.90352 c 0,0 -16.48672,-43.99687 -76.33589,-42.25999 -16.22801,0.47095 -22.09897,3.98332 -32.04237,9.43186 -16.586083,9.08842 -46.58574,39.31297 -45.755017,89.42809 0.737655,44.50061 30.311462,69.42754 72.628537,69.60553 58.37762,0.24554 88.04216,-74.17916 88.04216,-74.17916 L 168.93413,263.2519 191.7076,248.78817 Z"
       id="path3"
       sodipodi:nodetypes="csssscccc"
       clip-path="url(#clipath_lpe_path-effect29)"
       inkscape:path-effect="#path-effect29"
       inkscape:original-d="m 209.71466,228.90352 c 0,0 -16.48672,-43.99687 -76.33589,-42.25999 -16.22801,0.47095 -22.09897,3.98332 -32.04237,9.43186 -16.586083,9.08842 -46.58574,39.31297 -45.755017,89.42809 0.737655,44.50061 30.311462,69.42754 72.628537,69.60553 58.37762,0.24554 88.04216,-74.17916 88.04216,-74.17916 L 168.93413,263.2519 191.7076,248.78817 Z"
       inkscape:label="Blue"
       transform="matrix(1.2077551,0,0,1.2077551,-50.683124,-58.872674)" /><path
       style="display:inline;opacity:1;fill:#fbcb05;fill-opacity:1;stroke-width:1.20776"
       d="m 148.06948,249.18715 47.24398,-31.56367 c 0,0 -23.97579,-45.50145 -80.00082,-44.77773 -57.93909,0.74845 -78.685341,52.6046 -78.849846,90.51721 -0.153269,35.32324 27.799834,83.20218 77.264036,82.71628 61.38457,-0.60297 87.92378,-61.12065 87.92378,-61.12065 l -50.20557,-21.1963 c 0,0 -14.99183,24.17661 -33.90176,23.6146 -16.89273,-0.50207 -22.750008,-15.52134 -22.969478,-28.20053 -0.23357,-13.49406 5.534238,-30.22387 25.776228,-29.8163 16.02243,0.3226 27.71945,19.82709 27.71945,19.82709 z"
       id="path21"
       sodipodi:nodetypes="ccsssccsssc"
       inkscape:label="Yellow" /><g
       inkscape:groupmode="layer"
       id="g24"
       inkscape:label="C S Y"
       style="display:inline;opacity:0.32;mix-blend-mode:multiply"><path
         style="display:inline;opacity:1;fill:#6e0e0e;fill-opacity:1"
         d="m 133.72772,240.39718 c 0,0 -4.87698,-0.2562 -10.14883,4.18179 -5.27185,4.43799 -7.90344,13.12387 -7.39275,24.3335 0.37811,8.29941 8.59144,20.19192 17.09978,20.37615 9.0436,0.19583 15.34303,-5.42175 15.34303,-5.42175 z"
         id="path22"
         sodipodi:nodetypes="cssscc"
         mask="url(#mask84)"
         transform="matrix(1.2077551,0,0,1.2077551,-50.683124,-58.872674)" /><path
         style="display:inline;opacity:1;fill:#6e0e0e;fill-opacity:1"
         d="m 167.78263,253.9794 29.79226,-25.35845 c 0,0 -13.93027,-27.00461 -49.39319,-32.38432 -26.47372,-4.01605 -60.663951,13.80293 -60.663951,13.80293 l 36.852511,-35.6861 99.86135,16.22799 5.70923,45.65477 z"
         id="path23"
         sodipodi:nodetypes="ccsccccc"
         mask="url(#mask83)"
         transform="matrix(1.2077551,0,0,1.2077551,-50.683124,-58.872674)" /><path
         style="display:inline;opacity:1;fill:#6e0e0e;fill-opacity:1"
         d="m 163.73437,269.89701 38.68045,16.98529 c -3.15401,14.16473 -11.7061,25.15412 -19.98644,36.30336 l 57.90606,-41.68658 -58.49593,-20.50692 -16.36927,1.67162 z"
         id="path24"
         sodipodi:nodetypes="ccccccc"
         mask="url(#mask82)"
         transform="matrix(1.2077551,0,0,1.2077551,-50.683124,-58.872674)" /></g><g
       inkscape:groupmode="layer"
       id="g27"
       inkscape:label="C S B"
       style="display:inline;opacity:1;mix-blend-mode:color-burn"><path
         style="display:inline;opacity:1;fill:url(#radialGradient40)"
         d="m 97.547317,196.06572 c 0,0 -30.077353,26.04941 -29.933716,73.90674 0.127234,42.39202 35.426379,69.85388 64.782109,70.60181 42.07284,1.07193 72.47374,-35.28829 72.47374,-35.28829 17.64241,37.22694 -37.40675,44.60408 -58.96642,66.65602 C 91.285454,366.39309 61.587813,342.7206 30.398246,320.13314 l 19.864998,-94.95647 z"
         id="path25"
         sodipodi:nodetypes="cssccccc"
         mask="url(#mask144)"
         transform="matrix(1.2077551,0,0,1.2077551,-50.683124,-58.872674)" /><path
         style="display:inline;opacity:1;fill:url(#linearGradient40)"
         d="m 211.73045,227.51632 -48.41876,32.73744 -0.0949,5.61272 2.67658,-3.83477 3.02524,1.20013 4.30152,1.23012 33.77269,-14.90399 z"
         id="path26"
         sodipodi:nodetypes="cccccccc"
         mask="url(#mask143)"
         transform="matrix(1.2077551,0,0,1.2077551,-50.683124,-58.872674)" /><path
         style="display:inline;opacity:1;mix-blend-mode:normal;fill:url(#linearGradient42);fill-opacity:1"
         d="m 163.36399,260.31114 c 0,0 -12.16155,-17.0354 -21.96633,-17.21023 -11.86168,-0.2115 -16.92702,9.86905 -16.43781,18.68386 0.44379,7.99654 11.71734,20.69847 19.8886,18.74573 7.00073,-1.67301 12.11913,-4.54932 18.4318,-14.64384 z"
         id="path27"
         sodipodi:nodetypes="cssscc"
         mask="url(#mask142)"
         clip-path="url(#clipath_lpe_path-effect31)"
         inkscape:path-effect="#path-effect31"
         inkscape:original-d="m 163.36399,260.31114 c 0,0 -12.16155,-17.0354 -21.96633,-17.21023 -11.86168,-0.2115 -16.92702,9.86905 -16.43781,18.68386 0.44379,7.99654 11.71734,20.69847 19.8886,18.74573 7.00073,-1.67301 12.11913,-4.54932 18.4318,-14.64384 z"
         transform="matrix(1.2077551,0,0,1.2077551,-50.683124,-58.872674)" /></g></g></svg>
